# xmcd
#
# Track frame offsets: 
#        150
#        18318
#        34358
#        53549
#        73343
#        91729
#        113481
#        128790
#        150689
#        168602
#
# Disc length: 2505 seconds
#
# Revision: 0
# Processed by: cddbd v1.5.2PL0 Copyright (c) Steve Scherf et al.
# Submitted via: ExactAudioCopy v0.99pb4
#
DISCID=7c09c70a
DTITLE=Johnny Sansone - The Lord Is Waiting,The Devil Is Too
DYEAR=2011
DGENRE=Blues
TTITLE0=Sinking Ship
TTITLE1=Corn Whiskey
TTITLE2=Down
TTITLE3=Invisible
TTITLE4=Johnny and Janie
TTITLE5=You Know Who
TTITLE6=Where's Your Heart
TTITLE7=The Lord Is Waiting,The Devil Is Too
TTITLE8=Without Love
TTITLE9=Leavin'
EXTD=
EXTT0=
EXTT1=
EXTT2=
EXTT3=
EXTT4=
EXTT5=
EXTT6=
EXTT7=
EXTT8=
EXTT9=
PLAYORDER=
